<svg width="153" height="24" viewBox="0 0 153 24" fill="none" xmlns="http://www.w3.org/2000/svg">
<g clip-path="url(#clip0_7_3)">
<path d="M11.3469 18.0161H16.9766V18.027H16.9821L20.1443 21.3096H22.2889V22.5844H26.6056V18.4154H22.2889V19.8379H20.768L17.6058 16.5553H16.3146C16.6155 15.9097 16.9711 15.286 17.3103 14.5912H13.4368V14.5584H0.393921C0.465044 14.5857 0.54711 14.6186 0.634646 14.6404C1.60849 14.9249 1.89845 15.4337 1.65773 15.9754C1.417 16.517 1.41153 16.9054 1.97505 17.0258L2.2486 17.1845C2.2486 17.1845 1.73979 17.6823 1.7945 18.0161H11.3414H11.3469ZM23.6129 19.7394H25.2761V21.4081H23.6075V19.7394H23.6129Z" fill="#309ED8"/>
<path d="M2.04068 18.2732C2.70268 18.503 2.88869 18.7163 2.70815 19.2416C2.53307 19.7668 2.24858 21.2549 3.9063 21.0196C3.9063 21.0196 4.67771 20.8665 6.07282 20.664C7.26004 20.489 7.82355 21.709 8.15728 23.115C8.16275 23.1479 8.17917 23.1752 8.19011 23.2081C10.4168 23.2464 13.8253 23.0439 16.4896 21.709C16.0137 20.8938 15.7018 20.0513 15.6362 19.2361H11.3414V18.0325H1.79996C1.81637 18.1255 1.88749 18.2185 2.04068 18.2732Z" fill="#723D96"/>
<path d="M12.5998 5.03334H19.4823L21.9716 2.89417H25.1722V4.31664H29.4888V0H25.1722V1.42247H21.4245L18.9297 3.57258H16.3365C12.5615 -0.224312 5.03334 0.361087 2.63156 5.07164H12.6052V5.03334H12.5998ZM26.5016 1.32399H28.1703V2.99265H26.5016V1.32399Z" fill="#30469C"/>
<path d="M9.41015 9.25148H18.7218H22.2835V10.7068H26.6001V6.39014H22.2835V7.77978H18.4209C18.3334 7.23815 18.2021 6.72934 18.027 6.24789H12.5943V5.07162H2.63156C2.04069 6.23148 1.76166 7.643 1.9258 9.30072H9.41015V9.25148ZM23.6129 7.71413H25.2761V9.38279H23.6074V7.71413H23.6129Z" fill="#F8C90F"/>
<path d="M13.4423 13.3766H21.2823V13.3821H22.0099L23.6895 15.6033H27.6834V16.9273H32V12.5396H27.6834V14.1316H24.4226L22.743 11.9104H18.2677C18.3607 11.4672 18.4373 10.9858 18.4866 10.4606H9.41016V9.30072H1.92033C1.9258 9.33355 1.9258 9.3609 1.9258 9.39373C1.9258 9.39373 2.08993 10.7505 0.837071 12.5341C-0.043763 13.7815 -0.29543 14.2684 0.393919 14.5584H13.4423V13.3766ZM29.0074 13.869H30.676V15.5377H29.0074V13.869Z" fill="#D91E8D"/>
</g>
<path d="M41.2628 16.5H39.2855L42.2983 7.77273H44.6761L47.6847 16.5H45.7074L43.5213 9.76705H43.4531L41.2628 16.5ZM41.1392 13.0696H45.8097V14.5099H41.1392V13.0696ZM50.5803 7.77273V16.5H48.7351V7.77273H50.5803ZM56.7209 7.77273V16.5H54.8757V7.77273H56.7209ZM58.2049 16.5V9.95455H59.935V11.1094H60.0117C60.1481 10.7259 60.3754 10.4233 60.6935 10.2017C61.0117 9.98011 61.3924 9.86932 61.8356 9.86932C62.2844 9.86932 62.6665 9.98153 62.9819 10.206C63.2972 10.4276 63.5075 10.7287 63.6126 11.1094H63.6808C63.8143 10.7344 64.0558 10.4347 64.4052 10.2102C64.7575 9.98295 65.1737 9.86932 65.6538 9.86932C66.2646 9.86932 66.7603 10.0639 67.141 10.4531C67.5245 10.8395 67.7163 11.3878 67.7163 12.098V16.5H65.9052V12.456C65.9052 12.0923 65.8086 11.8196 65.6154 11.6378C65.4222 11.456 65.1808 11.3651 64.891 11.3651C64.5614 11.3651 64.3043 11.4702 64.1197 11.6804C63.935 11.8878 63.8427 12.1619 63.8427 12.5028V16.5H62.0827V12.4176C62.0827 12.0966 61.9904 11.8409 61.8058 11.6506C61.6239 11.4602 61.3839 11.3651 61.0856 11.3651C60.8839 11.3651 60.7021 11.4162 60.5401 11.5185C60.381 11.6179 60.2546 11.7585 60.1609 11.9403C60.0671 12.1193 60.0202 12.3295 60.0202 12.571V16.5H58.2049ZM71.0167 16.6236C70.5991 16.6236 70.2269 16.5511 69.9002 16.4062C69.5735 16.2585 69.315 16.0412 69.1246 15.7543C68.9371 15.4645 68.8434 15.1037 68.8434 14.6719C68.8434 14.3082 68.9102 14.0028 69.0437 13.7557C69.1772 13.5085 69.359 13.3097 69.5891 13.1591C69.8192 13.0085 70.0806 12.8949 70.3732 12.8182C70.6687 12.7415 70.9783 12.6875 71.3022 12.6562C71.6829 12.6165 71.9897 12.5795 72.2227 12.5455C72.4556 12.5085 72.6246 12.4545 72.7298 12.3835C72.8349 12.3125 72.8874 12.2074 72.8874 12.0682V12.0426C72.8874 11.7727 72.8022 11.5639 72.6317 11.4162C72.4641 11.2685 72.2255 11.1946 71.9158 11.1946C71.5891 11.1946 71.3292 11.267 71.136 11.4119C70.9428 11.554 70.815 11.733 70.7525 11.9489L69.0735 11.8125C69.1587 11.4148 69.3263 11.071 69.5763 10.7812C69.8263 10.4886 70.1488 10.2642 70.5437 10.108C70.9414 9.94886 71.4016 9.86932 71.9244 9.86932C72.288 9.86932 72.636 9.91193 72.9684 9.99716C73.3036 10.0824 73.6005 10.2145 73.859 10.3935C74.1204 10.5724 74.3263 10.8026 74.4769 11.0838C74.6275 11.3622 74.7028 11.696 74.7028 12.0852V16.5H72.9812V15.5923H72.93C72.8249 15.7969 72.6843 15.9773 72.5082 16.1335C72.332 16.2869 72.1204 16.4077 71.8732 16.4957C71.6261 16.581 71.3406 16.6236 71.0167 16.6236ZM71.5366 15.3707C71.8036 15.3707 72.0394 15.3182 72.244 15.2131C72.4485 15.1051 72.609 14.9602 72.7255 14.7784C72.842 14.5966 72.9002 14.3906 72.9002 14.1605V13.4659C72.8434 13.5028 72.7653 13.5369 72.6658 13.5682C72.5692 13.5966 72.4599 13.6236 72.3377 13.6491C72.2156 13.6719 72.0934 13.6932 71.9712 13.7131C71.8491 13.7301 71.7383 13.7457 71.6388 13.7599C71.4258 13.7912 71.2397 13.8409 71.0806 13.9091C70.9215 13.9773 70.7979 14.0696 70.7099 14.1861C70.6218 14.2997 70.5778 14.4418 70.5778 14.6122C70.5778 14.8594 70.6673 15.0483 70.8462 15.179C71.0281 15.3068 71.2582 15.3707 71.5366 15.3707ZM79.06 19.0909C78.4719 19.0909 77.9677 19.0099 77.5472 18.848C77.1296 18.6889 76.7972 18.4716 76.5501 18.196C76.3029 17.9205 76.1424 17.6108 76.0685 17.267L77.7475 17.0412C77.7987 17.1719 77.8796 17.294 77.9904 17.4077C78.1012 17.5213 78.2475 17.6122 78.4293 17.6804C78.614 17.7514 78.8384 17.7869 79.1026 17.7869C79.4975 17.7869 79.8228 17.6903 80.0785 17.4972C80.337 17.3068 80.4663 16.9872 80.4663 16.5384V15.3409H80.3896C80.31 15.5227 80.1907 15.6946 80.0316 15.8565C79.8725 16.0185 79.668 16.1506 79.418 16.2528C79.168 16.3551 78.8697 16.4062 78.5231 16.4062C78.0316 16.4062 77.5842 16.2926 77.1808 16.0653C76.7802 15.8352 76.4606 15.4844 76.2219 15.0128C75.9862 14.5384 75.8683 13.9389 75.8683 13.2145C75.8683 12.473 75.989 11.8537 76.2305 11.3565C76.4719 10.8594 76.793 10.4872 77.1935 10.2401C77.5969 9.9929 78.0387 9.86932 78.5188 9.86932C78.8853 9.86932 79.1921 9.93182 79.4393 10.0568C79.6864 10.179 79.8853 10.3324 80.0359 10.517C80.1893 10.6989 80.3072 10.8778 80.3896 11.054H80.4577V9.95455H82.2603V16.5639C82.2603 17.1207 82.1239 17.5866 81.8512 17.9616C81.5785 18.3366 81.2006 18.6179 80.7177 18.8054C80.2376 18.9957 79.685 19.0909 79.06 19.0909ZM79.0984 15.0426C79.391 15.0426 79.6381 14.9702 79.8398 14.8253C80.0444 14.6776 80.2006 14.4673 80.3086 14.1946C80.4194 13.919 80.4748 13.5895 80.4748 13.206C80.4748 12.8224 80.4208 12.4901 80.3129 12.2088C80.2049 11.9247 80.0487 11.7045 79.8441 11.5483C79.6396 11.392 79.391 11.3139 79.0984 11.3139C78.8001 11.3139 78.5487 11.3949 78.3441 11.5568C78.1396 11.7159 77.9847 11.9375 77.8796 12.2216C77.7745 12.5057 77.7219 12.8338 77.7219 13.206C77.7219 13.5838 77.7745 13.9105 77.8796 14.1861C77.9876 14.4588 78.1424 14.6705 78.3441 14.821C78.5487 14.9687 78.8001 15.0426 79.0984 15.0426ZM86.6879 16.6278C86.0146 16.6278 85.435 16.4915 84.9492 16.2188C84.4663 15.9432 84.0941 15.554 83.8327 15.0511C83.5714 14.5455 83.4407 13.9474 83.4407 13.2571C83.4407 12.5838 83.5714 11.9929 83.8327 11.4844C84.0941 10.9759 84.462 10.5795 84.9364 10.2955C85.4137 10.0114 85.9734 9.86932 86.6154 9.86932C87.0472 9.86932 87.4492 9.93892 87.8214 10.0781C88.1964 10.2145 88.5231 10.4205 88.8015 10.696C89.0827 10.9716 89.3015 11.3182 89.4577 11.7358C89.614 12.1506 89.6921 12.6364 89.6921 13.1932V13.6918H84.1651V12.5668H87.9833C87.9833 12.3054 87.9265 12.0739 87.8129 11.8722C87.6992 11.6705 87.5415 11.5128 87.3398 11.3991C87.141 11.2827 86.9094 11.2244 86.6452 11.2244C86.3697 11.2244 86.1254 11.2884 85.9123 11.4162C85.7021 11.5412 85.5373 11.7102 85.418 11.9233C85.2987 12.1335 85.2376 12.3679 85.2347 12.6264V13.696C85.2347 14.0199 85.2944 14.2997 85.4137 14.5355C85.5359 14.7713 85.7077 14.9531 85.9293 15.081C86.1509 15.2088 86.4137 15.2727 86.7177 15.2727C86.9194 15.2727 87.104 15.2443 87.2717 15.1875C87.4393 15.1307 87.5827 15.0455 87.7021 14.9318C87.8214 14.8182 87.9123 14.679 87.9748 14.5142L89.6538 14.625C89.5685 15.0284 89.3938 15.3807 89.1296 15.6818C88.8683 15.9801 88.5302 16.2131 88.1154 16.3807C87.7035 16.5455 87.2276 16.6278 86.6879 16.6278ZM99.4751 10.5938C99.4155 10.3864 99.3317 10.2031 99.2237 10.044C99.1158 9.8821 98.9837 9.74574 98.8274 9.63494C98.674 9.52131 98.4979 9.43466 98.299 9.375C98.103 9.31534 97.8857 9.28551 97.647 9.28551C97.201 9.28551 96.8089 9.39631 96.4709 9.6179C96.1357 9.83949 95.8743 10.1619 95.6868 10.5852C95.4993 11.0057 95.4055 11.5199 95.4055 12.1278C95.4055 12.7358 95.4979 13.2528 95.6825 13.679C95.8672 14.1051 96.1286 14.4304 96.4666 14.6548C96.8047 14.8764 97.2038 14.9872 97.6641 14.9872C98.0817 14.9872 98.4382 14.9134 98.7337 14.7656C99.032 14.6151 99.2592 14.4034 99.4155 14.1307C99.5746 13.858 99.6541 13.5355 99.6541 13.1634L100.029 13.2188H97.7791V11.8295H101.431V12.929C101.431 13.696 101.269 14.3551 100.945 14.9062C100.621 15.4545 100.175 15.8778 99.6072 16.1761C99.0391 16.4716 98.3885 16.6193 97.6555 16.6193C96.8374 16.6193 96.1186 16.4389 95.4993 16.0781C94.88 15.7145 94.397 15.1989 94.0504 14.5312C93.7067 13.8608 93.5348 13.0653 93.5348 12.1449C93.5348 11.4375 93.6371 10.8068 93.8416 10.2528C94.049 9.69602 94.3388 9.22443 94.7109 8.83807C95.0831 8.4517 95.5163 8.15767 96.0107 7.95597C96.505 7.75426 97.0405 7.65341 97.6172 7.65341C98.1115 7.65341 98.5717 7.72585 98.9979 7.87074C99.424 8.01278 99.8018 8.21449 100.131 8.47585C100.464 8.73722 100.735 9.0483 100.945 9.40909C101.156 9.76705 101.29 10.1619 101.35 10.5938H99.4751ZM105.766 16.6278C105.093 16.6278 104.513 16.4915 104.027 16.2188C103.544 15.9432 103.172 15.554 102.911 15.0511C102.65 14.5455 102.519 13.9474 102.519 13.2571C102.519 12.5838 102.65 11.9929 102.911 11.4844C103.172 10.9759 103.54 10.5795 104.015 10.2955C104.492 10.0114 105.051 9.86932 105.694 9.86932C106.125 9.86932 106.527 9.93892 106.9 10.0781C107.275 10.2145 107.601 10.4205 107.88 10.696C108.161 10.9716 108.38 11.3182 108.536 11.7358C108.692 12.1506 108.77 12.6364 108.77 13.1932V13.6918H103.243V12.5668H107.061C107.061 12.3054 107.005 12.0739 106.891 11.8722C106.777 11.6705 106.62 11.5128 106.418 11.3991C106.219 11.2827 105.988 11.2244 105.723 11.2244C105.448 11.2244 105.203 11.2884 104.99 11.4162C104.78 11.5412 104.615 11.7102 104.496 11.9233C104.377 12.1335 104.316 12.3679 104.313 12.6264V13.696C104.313 14.0199 104.373 14.2997 104.492 14.5355C104.614 14.7713 104.786 14.9531 105.007 15.081C105.229 15.2088 105.492 15.2727 105.796 15.2727C105.998 15.2727 106.182 15.2443 106.35 15.1875C106.517 15.1307 106.661 15.0455 106.78 14.9318C106.9 14.8182 106.99 14.679 107.053 14.5142L108.732 14.625C108.647 15.0284 108.472 15.3807 108.208 15.6818C107.946 15.9801 107.608 16.2131 107.194 16.3807C106.782 16.5455 106.306 16.6278 105.766 16.6278ZM111.77 12.7159V16.5H109.955V9.95455H111.685V11.1094H111.762C111.907 10.7287 112.15 10.4276 112.49 10.206C112.831 9.98153 113.245 9.86932 113.73 9.86932C114.185 9.86932 114.581 9.96875 114.919 10.1676C115.257 10.3665 115.52 10.6506 115.708 11.0199C115.895 11.3864 115.989 11.8239 115.989 12.3324V16.5H114.174V12.6562C114.176 12.2557 114.074 11.9432 113.867 11.7188C113.659 11.4915 113.374 11.3778 113.01 11.3778C112.766 11.3778 112.55 11.4304 112.363 11.5355C112.178 11.6406 112.033 11.794 111.928 11.9957C111.826 12.1946 111.773 12.4347 111.77 12.7159ZM120.403 16.6278C119.729 16.6278 119.15 16.4915 118.664 16.2188C118.181 15.9432 117.809 15.554 117.548 15.0511C117.286 14.5455 117.156 13.9474 117.156 13.2571C117.156 12.5838 117.286 11.9929 117.548 11.4844C117.809 10.9759 118.177 10.5795 118.651 10.2955C119.129 10.0114 119.688 9.86932 120.33 9.86932C120.762 9.86932 121.164 9.93892 121.536 10.0781C121.911 10.2145 122.238 10.4205 122.516 10.696C122.798 10.9716 123.016 11.3182 123.173 11.7358C123.329 12.1506 123.407 12.6364 123.407 13.1932V13.6918H117.88V12.5668H121.698C121.698 12.3054 121.641 12.0739 121.528 11.8722C121.414 11.6705 121.256 11.5128 121.055 11.3991C120.856 11.2827 120.624 11.2244 120.36 11.2244C120.085 11.2244 119.84 11.2884 119.627 11.4162C119.417 11.5412 119.252 11.7102 119.133 11.9233C119.013 12.1335 118.952 12.3679 118.95 12.6264V13.696C118.95 14.0199 119.009 14.2997 119.129 14.5355C119.251 14.7713 119.423 14.9531 119.644 15.081C119.866 15.2088 120.129 15.2727 120.433 15.2727C120.634 15.2727 120.819 15.2443 120.987 15.1875C121.154 15.1307 121.298 15.0455 121.417 14.9318C121.536 14.8182 121.627 14.679 121.69 14.5142L123.369 14.625C123.283 15.0284 123.109 15.3807 122.844 15.6818C122.583 15.9801 122.245 16.2131 121.83 16.3807C121.418 16.5455 120.942 16.6278 120.403 16.6278ZM124.592 16.5V9.95455H126.352V11.0966H126.42C126.539 10.6903 126.739 10.3835 127.021 10.1761C127.302 9.96591 127.626 9.8608 127.992 9.8608C128.083 9.8608 128.181 9.86648 128.286 9.87784C128.391 9.8892 128.484 9.90483 128.563 9.92472V11.5355C128.478 11.5099 128.36 11.4872 128.21 11.4673C128.059 11.4474 127.921 11.4375 127.796 11.4375C127.529 11.4375 127.29 11.4957 127.08 11.6122C126.873 11.7259 126.708 11.8849 126.586 12.0895C126.467 12.294 126.407 12.5298 126.407 12.7969V16.5H124.592ZM131.181 16.6236C130.763 16.6236 130.391 16.5511 130.064 16.4062C129.738 16.2585 129.479 16.0412 129.289 15.7543C129.101 15.4645 129.007 15.1037 129.007 14.6719C129.007 14.3082 129.074 14.0028 129.208 13.7557C129.341 13.5085 129.523 13.3097 129.753 13.1591C129.983 13.0085 130.245 12.8949 130.537 12.8182C130.833 12.7415 131.142 12.6875 131.466 12.6562C131.847 12.6165 132.154 12.5795 132.387 12.5455C132.62 12.5085 132.789 12.4545 132.894 12.3835C132.999 12.3125 133.051 12.2074 133.051 12.0682V12.0426C133.051 11.7727 132.966 11.5639 132.796 11.4162C132.628 11.2685 132.39 11.1946 132.08 11.1946C131.753 11.1946 131.493 11.267 131.3 11.4119C131.107 11.554 130.979 11.733 130.917 11.9489L129.238 11.8125C129.323 11.4148 129.49 11.071 129.74 10.7812C129.99 10.4886 130.313 10.2642 130.708 10.108C131.105 9.94886 131.566 9.86932 132.088 9.86932C132.452 9.86932 132.8 9.91193 133.132 9.99716C133.468 10.0824 133.765 10.2145 134.023 10.3935C134.284 10.5724 134.49 10.8026 134.641 11.0838C134.792 11.3622 134.867 11.696 134.867 12.0852V16.5H133.145V15.5923H133.094C132.989 15.7969 132.848 15.9773 132.672 16.1335C132.496 16.2869 132.284 16.4077 132.037 16.4957C131.79 16.581 131.505 16.6236 131.181 16.6236ZM131.701 15.3707C131.968 15.3707 132.203 15.3182 132.408 15.2131C132.613 15.1051 132.773 14.9602 132.89 14.7784C133.006 14.5966 133.064 14.3906 133.064 14.1605V13.4659C133.007 13.5028 132.929 13.5369 132.83 13.5682C132.733 13.5966 132.624 13.6236 132.502 13.6491C132.38 13.6719 132.257 13.6932 132.135 13.7131C132.013 13.7301 131.902 13.7457 131.803 13.7599C131.59 13.7912 131.404 13.8409 131.245 13.9091C131.086 13.9773 130.962 14.0696 130.874 14.1861C130.786 14.2997 130.742 14.4418 130.742 14.6122C130.742 14.8594 130.831 15.0483 131.01 15.179C131.192 15.3068 131.422 15.3707 131.701 15.3707ZM139.757 9.95455V11.3182H135.815V9.95455H139.757ZM136.71 8.38636H138.525V14.4886C138.525 14.6562 138.551 14.7869 138.602 14.8807C138.653 14.9716 138.724 15.0355 138.815 15.0724C138.909 15.1094 139.017 15.1278 139.139 15.1278C139.224 15.1278 139.309 15.1207 139.395 15.1065C139.48 15.0895 139.545 15.0767 139.591 15.0682L139.876 16.419C139.785 16.4474 139.657 16.4801 139.493 16.517C139.328 16.5568 139.127 16.581 138.892 16.5895C138.454 16.6065 138.071 16.5483 137.741 16.4148C137.414 16.2812 137.16 16.0739 136.978 15.7926C136.797 15.5114 136.707 15.1562 136.71 14.7273V8.38636ZM143.826 16.6278C143.164 16.6278 142.592 16.4872 142.109 16.206C141.629 15.9219 141.258 15.527 140.997 15.0213C140.735 14.5128 140.605 13.9233 140.605 13.2528C140.605 12.5767 140.735 11.9858 140.997 11.4801C141.258 10.9716 141.629 10.5767 142.109 10.2955C142.592 10.0114 143.164 9.86932 143.826 9.86932C144.488 9.86932 145.059 10.0114 145.539 10.2955C146.022 10.5767 146.395 10.9716 146.656 11.4801C146.917 11.9858 147.048 12.5767 147.048 13.2528C147.048 13.9233 146.917 14.5128 146.656 15.0213C146.395 15.527 146.022 15.9219 145.539 16.206C145.059 16.4872 144.488 16.6278 143.826 16.6278ZM143.835 15.2216C144.136 15.2216 144.387 15.1364 144.589 14.9659C144.791 14.7926 144.943 14.5568 145.045 14.2585C145.15 13.9602 145.203 13.6207 145.203 13.2401C145.203 12.8594 145.15 12.5199 145.045 12.2216C144.943 11.9233 144.791 11.6875 144.589 11.5142C144.387 11.3409 144.136 11.2543 143.835 11.2543C143.531 11.2543 143.275 11.3409 143.068 11.5142C142.863 11.6875 142.708 11.9233 142.603 12.2216C142.501 12.5199 142.45 12.8594 142.45 13.2401C142.45 13.6207 142.501 13.9602 142.603 14.2585C142.708 14.5568 142.863 14.7926 143.068 14.9659C143.275 15.1364 143.531 15.2216 143.835 15.2216ZM148.228 16.5V9.95455H149.988V11.0966H150.056C150.176 10.6903 150.376 10.3835 150.657 10.1761C150.939 9.96591 151.262 9.8608 151.629 9.8608C151.72 9.8608 151.818 9.86648 151.923 9.87784C152.028 9.8892 152.12 9.90483 152.2 9.92472V11.5355C152.115 11.5099 151.997 11.4872 151.846 11.4673C151.696 11.4474 151.558 11.4375 151.433 11.4375C151.166 11.4375 150.927 11.4957 150.717 11.6122C150.51 11.7259 150.345 11.8849 150.223 12.0895C150.103 12.294 150.044 12.5298 150.044 12.7969V16.5H148.228Z" fill="#444444"/>
<defs>
<clipPath id="clip0_7_3">
<rect width="32" height="24" fill="white"/>
</clipPath>
</defs>
</svg>
